<svg width="250" height="250" viewBox="0 0 250 250" fill="none" xmlns="http://www.w3.org/2000/svg">
<path d="M81.9258 35.2685C82.9173 34.7053 84.1782 35.052 84.7422 36.0429L96.2754 56.331C104.889 52.2709 114.513 50.0009 124.667 50.0009C134.928 50.001 144.647 52.3189 153.33 56.4599L164.824 36.2412C165.388 35.2501 166.649 34.9027 167.641 35.4658C168.632 36.0295 168.979 37.2914 168.416 38.2831L157.005 58.3554C177.479 69.734 191.333 91.583 191.333 116.667C191.333 116.946 191.331 117.224 191.327 117.502C191.331 117.63 191.333 117.759 191.333 117.888V200.999C191.333 208.731 185.065 214.999 177.333 214.999H72C64.2681 214.999 58.0002 208.731 58 200.999V117.888C58 117.759 58.0014 117.63 58.0049 117.502C58.0015 117.224 58 116.946 58 116.667C58.0004 91.476 71.9733 69.5482 92.5908 58.2109L81.1504 38.0849C80.5872 37.0932 80.9343 35.8322 81.9258 35.2685ZM78.1113 166.851C73.141 166.851 69.1117 170.88 69.1113 175.851V194.888C69.1114 199.858 73.1408 203.888 78.1113 203.888H174.926C179.896 203.888 183.926 199.858 183.926 194.888V175.851C183.925 170.88 179.896 166.851 174.926 166.851H78.1113ZM126.259 114.999C121.289 114.999 117.259 119.029 117.259 123.999V143.036C117.259 148.006 121.289 152.036 126.259 152.036H174.926C179.896 152.036 183.926 148.006 183.926 143.036V123.999C183.925 119.029 179.896 114.999 174.926 114.999H126.259ZM110.435 120.1C108.342 118.144 105.061 118.256 103.105 120.349L85.2539 139.453L79.9365 134.792C77.7831 132.904 74.5068 133.12 72.6191 135.273C70.7317 137.427 70.9471 140.703 73.1006 142.591L82.0127 150.403C83.8444 152.009 86.4877 152.091 88.3984 150.755C88.9653 150.484 89.4933 150.106 89.9482 149.619L110.684 127.429C112.639 125.336 112.527 122.055 110.435 120.1ZM94.2959 79.6298C91.0236 79.63 88.3706 82.2843 88.3701 85.5566C88.3703 88.8291 91.0234 91.4822 94.2959 91.4824C97.5686 91.4824 100.222 88.8292 100.223 85.5566C100.222 82.2842 97.5684 79.6298 94.2959 79.6298ZM155.777 79.6298C152.505 79.63 149.852 82.2843 149.852 85.5566C149.852 88.8291 152.505 91.4822 155.777 91.4824C159.05 91.4824 161.703 88.8292 161.703 85.5566C161.703 82.2842 159.05 79.6298 155.777 79.6298Z" fill="#FBF1C7"/>
</svg>
